<svg width="50" height="50" viewBox="0 0 50 50" fill="none" xmlns="http://www.w3.org/2000/svg">
<circle cx="25" cy="25" r="25" fill="white"/>
<path d="M25 40C33.2843 40 40 33.2843 40 25C40 16.7157 33.2843 10 25 10C16.7157 10 10 16.7157 10 25C10 33.2843 16.7157 40 25 40Z" fill="#F7931A"/>
<path d="M31.739 23.1438C32.0334 21.1788 30.5362 20.1222 28.4905 19.4172L29.1543 16.7547L27.5343 16.3516L26.8874 18.9437C26.4618 18.8369 26.0249 18.7375 25.589 18.6381L26.2405 16.0291L24.6205 15.625L23.9568 18.2866C23.6043 18.2059 23.2574 18.1272 22.9218 18.0428L22.9237 18.0344L20.6887 17.4766L20.2574 19.2072C20.2574 19.2072 21.4602 19.4828 21.4349 19.4997C22.0912 19.6638 22.2093 20.0978 22.1896 20.4428C21.5835 22.8754 20.9784 25.3027 20.3718 27.7356C20.2912 27.9344 20.0877 28.2334 19.6284 28.12C19.6452 28.1434 18.4509 27.8266 18.4509 27.8266L17.6465 29.6809L19.7559 30.2069C20.1477 30.3053 20.5321 30.4084 20.9099 30.505L20.2396 33.1975L21.8587 33.6006L22.5224 30.9381C22.9649 31.0572 23.3943 31.1678 23.8143 31.2728L23.1524 33.9241L24.7724 34.3272L25.4427 31.6403C28.2065 32.1634 30.284 31.9525 31.1587 29.4531C31.8637 27.4412 31.124 26.2797 29.6699 25.5231C30.7293 25.2794 31.5262 24.5828 31.739 23.1438ZM28.0359 28.3356C27.5362 30.3484 24.1471 29.26 23.0484 28.9872L23.939 25.42C25.0377 25.6947 28.5599 26.2375 28.0359 28.3356ZM28.5374 23.1147C28.0809 24.9456 25.2609 24.0147 24.3468 23.7869L25.153 20.5525C26.0671 20.7803 29.0137 21.205 28.5374 23.1147Z" fill="white"/>
</svg>
